<svg xmlns="http://www.w3.org/2000/svg" version="1.1" xmlns:xlink="http://www.w3.org/1999/xlink" xmlns:svgjs="http://svgjs.dev/svgjs" width="1000" height="623" viewBox="0 0 1000 623"><g transform="matrix(1,0,0,1,-0.6060606060606233,0.2522267206477409)"><svg viewBox="0 0 396 247" data-background-color="#0a1627" preserveAspectRatio="xMidYMid meet" height="623" width="1000" xmlns="http://www.w3.org/2000/svg" xmlns:xlink="http://www.w3.org/1999/xlink"><g id="tight-bounds" transform="matrix(1,0,0,1,0.2400000000000091,-0.09999999999999432)"><svg viewBox="0 0 395.52 247.2" height="247.2" width="395.52"><g><svg></svg></g><g><svg viewBox="0 0 395.52 247.2" height="247.2" width="395.52"><g transform="matrix(1,0,0,1,75.54432,93.1417936373129)"><svg viewBox="0 0 244.43135999999998 60.91641272537417" height="60.91641272537417" width="244.43135999999998"><g><svg viewBox="0 0 244.43135999999998 60.91641272537417" height="60.91641272537417" width="244.43135999999998"><g><svg viewBox="0 0 244.43135999999998 60.91641272537417" height="60.91641272537417" width="244.43135999999998"><g><svg viewBox="0 0 244.43135999999998 60.91641272537417" height="60.91641272537417" width="244.43135999999998"><g id="textblocktransform"><svg viewBox="0 0 244.43135999999998 60.91641272537417" height="60.91641272537417" width="244.43135999999998" id="textblock"><g><svg viewBox="0 0 244.43135999999998 60.91641272537417" height="60.91641272537417" width="244.43135999999998"><g transform="matrix(1,0,0,1,0,0)"><svg width="244.43135999999998" viewBox="0 -35.79999923706055 143.63999938964844 35.79999923706055" height="60.91641272537417" data-palette-color="#fe0039"><path d="M17.85-2.15L27.55-2.15 27.55 0 0 0 0-2.15 5.5-2.15Q3.3-3.15 1.55-5L1.55-5 4.9-9.65Q8.3-6.4 11.55-6.4L11.55-6.4Q13.85-6.4 15.48-7.95 17.1-9.5 17.1-12.6L17.1-12.6 17.1-29.65 6-29.65 6-34.95 23-34.95 23-12.9Q23-5.1 17.85-2.15L17.85-2.15ZM63.25-2.15L69.05-2.15 69.05 0 57.9 0 54.4-7.95 36.9-7.95 33.4 0 22.25 0 22.25-2.15 28.05-2.15 42.5-34.95 48.8-34.95 63.25-2.15ZM39.3-13.4L52-13.4 45.65-27.8 39.3-13.4ZM94.65-2.15L102.05-2.15 102.05 0 64.2 0 64.2-2.15 76.3-2.15Q71.95-4.35 69.37-8.6 66.8-12.85 66.8-18.2L66.8-18.2Q66.8-25.85 72.1-30.83 77.4-35.8 84.97-35.8 92.55-35.8 97.55-31.4L97.55-31.4 94.4-26.9Q92.35-28.65 90.27-29.33 88.2-30 85.45-30L85.45-30Q80.1-30 76.52-26.8 72.95-23.6 72.95-18.05 72.95-12.5 76.45-9.13 79.95-5.75 84.92-5.75 89.9-5.75 93.25-7.9L93.25-7.9 93.25-17.5 99.15-17.5 99.15-5.55Q97.3-3.5 94.65-2.15L94.65-2.15ZM137.84-2.15L143.64-2.15 143.64 0 132.49 0 128.99-7.95 111.49-7.95 107.99 0 96.84 0 96.84-2.15 102.64-2.15 117.09-34.95 123.39-34.95 137.84-2.15ZM113.89-13.4L126.59-13.4 120.24-27.8 113.89-13.4Z" opacity="1" transform="matrix(1,0,0,1,0,0)" fill="#fe0039" class="undefined-text-0" data-fill-palette-color="primary" id="text-0"></path></svg></g></svg></g></svg></g></svg></g></svg></g></svg></g></svg></g><g><path d="M0 123.6c0-68.262 55.338-123.6 123.6-123.6 55.134 0 101.837 36.099 117.761 85.951l-2.887 0c-15.824-48.311-61.274-83.205-114.874-83.204-66.745 0-120.853 54.108-120.853 120.853 0 66.745 54.108 120.853 120.853 120.853 53.6 0 99.05-34.894 114.874-83.204l2.887 0c-15.924 49.852-62.627 85.951-117.761 85.951-68.262 0-123.6-55.338-123.6-123.6z" fill="#fe0039" stroke="transparent" data-fill-palette-color="tertiary"></path></g></svg></g><defs></defs></svg><rect width="395.52" height="247.2" fill="none" stroke="none" visibility="hidden"></rect></g></svg></g></svg>